# xmcd
#
# Track frame offsets:
#	150
#	18460
#	28585
#	41362
#	56517
#	78843
#	97095
#	117795
#	133857
#	150338
#	162851
#	181159
#
# Disc length: 2581 seconds
#
# Revision: 0
# Processed by: cddbd v1.5.2PL0 Copyright (c) Steve Scherf et al.
# Submitted via: dBpowerAMP V4.0
#
DISCID=890a130c
DTITLE=Jones Tones - Featuring Davey J
DYEAR=1998
DGENRE=Blues
TTITLE0=Another Day
TTITLE1=Opry House
TTITLE2=Without a Gun
TTITLE3=Laura's in Love
TTITLE4=Over and Over
TTITLE5=Mirrors of Your Mind
TTITLE6=Canvas on a Frame
TTITLE7=Cover Me
TTITLE8=Nevada Beach
TTITLE9=That Don't Mean
TTITLE10=Maxine
TTITLE11=Short Hair Rock
EXTD=
EXTT0=
EXTT1=
EXTT2=
EXTT3=
EXTT4=
EXTT5=
EXTT6=
EXTT7=
EXTT8=
EXTT9=
EXTT10=
EXTT11=
PLAYORDER=
